# xmcd
#
# Track frame offsets:
#	150
#	17611
#	38952
#	51197
#	59994
#	69840
#	84036
#	100432
#	108233
#	117016
#	131870
#	145573
#	160704
#	171730
#	184545
#	198760
#	213869
#	231871
#	241456
#	247724
#	259735
#	275749
#	289407
#	300021
#	305802
#	310257
#	335075
#
# Disc length: 4763 seconds
#
# Revision: 2
# Processed by: cddbd v1.5.2PL0 Copyright (c) Steve Scherf et al.
# Submitted via: EZCDAudioConverter 1.2.2.1
#
DISCID=8212991b
DTITLE=А. Розенбаум - Лучшие песни
DYEAR=1900
DGENRE=Vocal
TTITLE0=Транссибирская магистраль
TTITLE1=Размышление на прогулке
TTITLE2=Романс генерала Чарноты
TTITLE3=Зимняя ночь
TTITLE4=Проводы
TTITLE5=Послепобедный вальс
TTITLE6=Вальс Бостон
TTITLE7=Извозчик
TTITLE8=18 лет спустя
TTITLE9=Песня красных казаков
TTITLE10=Казачья (Только пуля казака)
TTITLE11=Прости-прощай
TTITLE12=38 узлов
TTITLE13=Зойка
TTITLE14=Мы идем любовь искать
TTITLE15=Серый в яблоках конь
TTITLE16=Утки
TTITLE17=Воспоминания о будущем
TTITLE18=Маруся
TTITLE19=Мой двор
TTITLE20=Свадьба
TTITLE21=На улице Марата
TTITLE22=Ленинград-МГА
TTITLE23=Посвящение посвящающим
TTITLE24=У окна
TTITLE25=На плантациях любви
TTITLE26=Ау
EXTD=
EXTT0=
EXTT1=
EXTT2=
EXTT3=
EXTT4=
EXTT5=
EXTT6=
EXTT7=
EXTT8=
EXTT9=
EXTT10=
EXTT11=
EXTT12=
EXTT13=
EXTT14=
EXTT15=
EXTT16=
EXTT17=
EXTT18=
EXTT19=
EXTT20=
EXTT21=
EXTT22=
EXTT23=
EXTT24=
EXTT25=
EXTT26=
PLAYORDER=
